<svg width="1300px" height="1000px" viewBox="0 0 1300 1000">
    <!-- Generator: Sketch 3.5.1 (25234) - http://www.bohemiancoding.com/sketch -->
    <title>bbb_logo</title>
    <desc>Created with Sketch.</desc>
    <defs>
        <linearGradient x1="100%" y1="80.4645116%" x2="0%" y2="21.0140628%" id="linearGradient-1">
            <stop stop-color="#409FFF" offset="0%"></stop>
            <stop stop-color="#2157CF" offset="100%"></stop>
        </linearGradient>
        <linearGradient x1="100%" y1="80.4645116%" x2="0%" y2="21.0140628%" id="linearGradient-2">
            <stop stop-color="#001CFF" stop-opacity="0" offset="0%"></stop>
            <stop stop-color="#5AEAFF" stop-opacity="0.201341712" offset="100%"></stop>
        </linearGradient>
        <radialGradient cx="33.2232386%" cy="23.353294%" fx="33.2232386%" fy="23.353294%" r="100%" id="radialGradient-3">
            <stop stop-color="#FFFFFF" offset="0%"></stop>
            <stop stop-color="#FFFFFF" offset="100%"></stop>
        </radialGradient>
    </defs>
    <g id="Page-1" stroke="none" stroke-width="1" fill="none" fill-rule="evenodd" sketch:type="MSPage">
        <g id="bbb_logo" sketch:type="MSLayerGroup" transform="translate(-350.000000, -400.000000)">
            <g id="magnifying-glass" transform="translate(1007.830629, 964.102699) rotate(58.000000) translate(-1007.830629, -964.102699) translate(415.830629, 146.602699)" sketch:type="MSShapeGroup">
                <circle id="Oval-10" fill="#9B9B9B" transform="translate(592.000000, 592.000000) rotate(-49.000000) translate(-592.000000, -592.000000) " cx="592" cy="592" r="419"></circle>
                <circle id="Oval-9" fill="url(#linearGradient-1)" transform="translate(597.029188, 595.029188) rotate(-49.000000) translate(-597.029188, -595.029188) " cx="597.029188" cy="595.029188" r="300.029188"></circle>
                <circle id="Oval-9" fill="url(#linearGradient-1)" transform="translate(597.029188, 595.029188) rotate(-49.000000) translate(-597.029188, -595.029188) " cx="597.029188" cy="595.029188" r="300.029188"></circle>
                <circle id="Oval-9" fill="url(#linearGradient-2)" transform="translate(597.000000, 595.000000) rotate(-49.000000) translate(-597.000000, -595.000000) " cx="597" cy="595" r="260"></circle>
                <g id="Group-5" transform="translate(602.360512, 1283.857398) rotate(-58.000000) translate(-602.360512, -1283.857398) translate(331.860512, 1055.857398)">
                    <g id="Group-6" transform="translate(270.510623, 212.084510) rotate(57.000000) translate(-270.510623, -212.084510) translate(196.510623, -61.915490)" fill="#9B9B9B">
                        <rect id="Rectangle-7" transform="translate(74.000000, 68.437669) rotate(91.000000) translate(-74.000000, -68.437669) " x="7" y="32.9375896" width="134" height="71.0001594"></rect>
                        <path d="M6.82121026e-13,286.830549 C6.82121026e-13,245.956578 6.82460455e-13,179.695562 6.82470721e-13,138.814747 L6.82499482e-13,154.640733 C6.82290467e-13,113.77171 33.1219425,80.6408217 74,80.6408217 L74,80.6408217 C114.869071,80.6408217 148,113.77349 148,154.640985 L148,97.2738046 C148,138.143017 148,204.412798 148,245.277373 L148,473.693758 C148,514.560061 114.878057,547.688745 74,547.688745 L74,547.688745 C33.1309285,547.688745 6.82121026e-13,514.556918 6.82121026e-13,473.681016 L6.82121026e-13,286.830549 Z" id="Rectangle-9"></path>
                    </g>
                    <g id="Group-6" transform="translate(253.057093, 260.033496) rotate(53.000000) translate(-253.057093, -260.033496) translate(187.057093, 23.033496)" fill="#878787">
                        <path d="M109.439012,4.7333754 C104.611865,3.74331792 99.6133473,3.22332122 94.4933838,3.22332122 C53.6153264,3.22332122 20.4933838,36.3542099 20.4933838,77.2232323 L20.4933838,61.3972465 C20.4933838,102.278061 20.4933838,168.539078 20.4933838,209.413048 L20.4933838,396.263515 C20.4933838,437.139417 53.6243124,470.271245 94.4933838,470.271245 C100.296077,470.271245 105.942484,469.603696 111.360048,468.341226 C77.65535,461.428491 52.3054286,431.598651 52.3054286,395.84348 L52.3054286,208.993013 C52.3054286,168.119042 52.3054286,101.858026 52.3054286,60.9772111 L52.3054286,76.8031969 C52.3054286,41.735497 76.6915012,12.3650079 109.439012,4.7333754 Z" id="Rectangle-9" transform="translate(65.926716, 236.747283) rotate(185.000000) translate(-65.926716, -236.747283) "></path>
                    </g>
                    <path d="M452.872371,63.9843924 L487.872371,63.9843924 L487.872371,149.364077 L452.872371,139.916627 L452.872371,63.9843924 Z" id="Rectangle-9" fill="#878787" transform="translate(470.372371, 106.674235) rotate(58.000000) translate(-470.372371, -106.674235) "></path>
                </g>
            </g>
            <text id="a" sketch:type="MSTextLayer" font-family="Helvetica" font-size="700" font-weight="bold" fill="#FFFFFF">
                <tspan x="1007" y="1030">a</tspan>
            </text>
            <path d="M1180.43685,956.804373 C1180.43685,838.403341 1113.26545,656.21252 1113.26545,656.21252 C1113.26545,656.21252 1253.06294,651.859749 1338.42335,721.654033 C1422.77443,790.623049 1452.8317,904.989096 1448.07887,974.117152 C1443.32603,1043.24521 1400.65926,1141.65206 1338.42335,1190.18651 C1242.2534,1265.1843 1123.10892,1254.06884 1123.10892,1254.06884 C1123.10892,1254.06884 1180.43685,1075.2054 1180.43685,956.804373 Z" id="Rectangle-10" fill-opacity="0.09" fill="#000000" sketch:type="MSShapeGroup" transform="translate(1280.912495, 955.404464) rotate(52.000000) translate(-1280.912495, -955.404464) "></path>
        </g>
    </g>
</svg>